<svg width="312" height="410" viewBox="0 0 312 410" fill="none" xmlns="http://www.w3.org/2000/svg">
<path d="M27.5634 45.5124C27.5634 45.5124 24.5614 47.0125 22.5601 45.5124C22.1493 45.2044 21.6794 44.7885 21.2129 44.285M31.5663 14.8277C30.3989 34.3295 22.9606 86.6707 2.54705 140.021M31.5663 14.8277C30.9008 8.02552 29.4977 6.59529 28.5642 6.7764M31.5663 14.8277C36.0692 39.3754 46.6762 90.1074 53.0804 96.6534M2.54705 140.021C1.37961 143.158 -0.254807 160.396 2.54705 204.254L4.04798 237.598M2.54705 140.021L71.5927 169.478M2.54705 140.021C22.2218 133.066 59.873 114.655 53.0804 96.6534M21.2129 44.285C19.4066 42.3357 17.6495 39.0748 19.5581 35.6933C21.226 32.0111 24.5617 23.4194 24.5617 18.5099C24.5617 13.97 26.5582 9.54671 27.7819 7.50454C27.9642 7.20041 28.1746 6.87411 28.5182 6.7867C28.5334 6.78284 28.5487 6.7794 28.5642 6.7764M21.2129 44.285C22.6627 43.6031 25.4623 41.0938 25.062 36.5115C24.6784 32.1203 26.868 25.2492 27.0512 24.6841C27.0602 24.6563 27.0678 24.6341 27.0774 24.6065C27.7446 22.6797 28.7557 18.5826 27.5634 17.2825C26.3628 15.9733 28.7311 11.0092 30.0653 8.69082M74.5947 408L11.5195 381.43C9.71177 380.668 8.5163 378.92 8.46242 376.959L5.54892 270.942L4.04798 237.598M74.5947 408L296.316 380.724C298.839 380.414 300.728 378.31 300.708 375.768C300.11 298.993 301.006 152.434 309.25 146.976M74.5947 408L71.5927 169.478M309.25 146.976C317.656 141.412 293.74 60.9229 280.731 21.3738C279.064 17.6916 276.228 8.9363 278.23 3.37215C280.231 -2.19199 112.62 3.32326 28.5642 6.7764M309.25 146.976L71.5927 169.478M53.0804 96.6534C59.4847 103.199 68.0904 147.931 71.5927 169.478M71.5927 169.478C48.2777 170.16 2.12766 184.739 4.04798 237.598M97.5 378C95 375.5 87.7 370.6 92.5 345C96.1959 325.289 109.219 317.158 119.428 314.536C123.046 313.607 125.416 317.415 123.704 320.734C118.473 330.876 115.744 337.02 114.722 340.5M97.5 378C104 382.5 121.5 382.2 131.5 349C137.553 328.903 128.129 336.244 121 341.268C116.492 344.445 112.902 346.697 114.722 340.5M97.5 378C97.3146 367.167 111.5 354 114.722 340.5M275.627 165.255C268.853 161.022 251.814 161.916 242 194.5C235.947 214.597 245.371 207.256 252.5 202.232C255.552 200.081 258 199.103 259 199.386M275.627 165.255C275.881 165.414 276.104 165.605 276.321 165.812C279.063 168.424 285.608 173.922 281 198.5C277.304 218.211 264.281 226.342 254.072 228.964C250.454 229.893 248.095 226.064 249.807 222.744C258.037 206.787 259.5 199 259 199.386M275.627 165.255C260.5 174 258 199.103 259 199.386M240.428 371.732C230.219 369.11 217.196 360.98 213.5 341.268C208.7 315.668 216 310.768 218.5 308.268M240.428 371.732C244.046 372.661 246.416 368.853 244.704 365.534M240.428 371.732C265.17 392.503 258.785 357.411 252.5 337.268M218.5 308.268C225 303.768 242.5 304.068 252.5 337.268M218.5 308.268C218.32 318.806 231.735 331.55 235.434 344.662M252.5 337.268C258.553 357.365 249.129 350.025 242 345M242 345C237.786 342.03 234.374 339.869 235.434 344.662M242 345C250.303 350.189 262.467 361.561 244.704 365.534M235.434 344.662C235.508 344.996 235.603 345.364 235.722 345.768M235.434 344.662C235.538 345.031 235.634 345.399 235.722 345.768M235.722 345.768C236.744 349.248 239.473 355.393 244.704 365.534M126.794 189C137.003 191.622 150.026 199.752 153.722 219.464C158.33 244.042 151.785 249.54 149.043 252.152C148.826 252.359 148.603 252.55 148.349 252.709C141.575 256.941 124.536 256.048 114.722 223.464M126.794 189C123.176 188.071 120.806 191.879 122.518 195.198C127.749 205.339 130.478 211.484 131.5 214.964C131.588 215.333 131.684 215.701 131.788 216.07C132.848 220.863 129.436 218.702 125.222 215.732C118.093 210.707 108.669 203.367 114.722 223.464M126.794 189C107.029 182.6 110.511 209.309 114.722 223.464M9 131L14.5 117.5M31.5 38.5C30.432 48 27.6492 67.9 25.062 71.5M55.5 108.5C59.5 125.425 67.5 160.32 67.5 164.5M5 145C4.5 153.333 3.8 171.6 5 178M9.5 236.5L11 270.942M12 372C11.5 378.5 11.5 378.5 23.5 382.5M12 366L11 338M16.5 360V369M8.5 155.5C8.16667 162 7.8 175.4 9 177M34.5 46.5C33.3333 55.3333 30.5 73 28.5 73M7 135C7.83333 135.333 10.7 134.3 15.5 127.5" stroke="#444A4A" stroke-width="2"/>
</svg>
