<svg xmlns="http://www.w3.org/2000/svg" viewBox="0 0 7158.39 2267.72" fill="none" stroke="currentColor" height="22.68" width="71.58" xml:space="preserve">
  <defs>
    <clipPath id="a" clipPathUnits="userSpaceOnUse">
      <path d="M0 1700.79h5368.8V0H0Z"/>
    </clipPath>
  </defs>
  <path style="fill:#2D635E;fill-opacity:1;fill-rule:nonzero;stroke:none" d="m0 0 618.08 1008.51H855.8V139.75l533.07 868.76h237.72V0h-41.78v873.09L1051.74 0H814v873.09L280.94 0Z" transform="matrix(1.33333 0 0 -1.33333 313.33 1834.42)"/>
  <g clip-path="url(#a)" transform="matrix(1.33333 0 0 -1.33333 0 2267.72)">
    <path style="fill:#2D635E;fill-opacity:1;fill-rule:nonzero;stroke:none" d="M0 0v77.8c0 267.98-140.65 489.85-314.38 489.85-172.08 0-312.73-221.87-312.73-489.85V0c0-269.42 140.65-491.3 312.73-491.3C-140.65-491.3 0-269.41 0 0m-314.27 605.1c291.02 0 525.86-234.83 525.86-538.83V11.53c0-309.76-234.84-540.28-525.87-540.28-289.58 0-524.42 230.52-524.42 540.28v54.74c0 304 234.84 538.84 524.43 538.84" transform="translate(2756.47 790.33)"/>
    <path style="fill:#2D635E;fill-opacity:1;fill-rule:nonzero;stroke:none" d="M0 0c0 87.89-129.67 115.26-180.1 115.26h-681.46v-230.52h646.9C-82.13-115.26 0-69.16 0 0m-47.54 275.18c0 89.33-126.79 113.82-213.23 113.82h-600.79V157.04h635.37c70.6 0 178.65 34.58 178.65 118.14m-292.47-642.57h-563.33V641.13h517.22c376.04 0 384.68-110.94 384.68-358.75 0-36.01-27.37-100.85-95.09-136.87 67.72-20.17 141.2-73.47 141.2-162.8 0-208.9 0-350.1-384.68-350.1" transform="translate(3927.58 692.36)"/>
    <path style="fill:#2D635E;fill-opacity:1;fill-rule:nonzero;stroke:none" d="m0 0 269.42 557.56h-531.63zm-450.95 959.53 168.57-360.18h571.97l172.89 360.18h265.1L240.6-48.98H-24.5l-472.55 1008.5Z" transform="translate(4454.87 373.96)"/>
    <path style="fill:#2D635E;fill-opacity:1;fill-rule:nonzero;stroke:none" d="M0 0c-9.27 0-47.65 1.54-72.1 25.98-27.35 27.36-26.01 72.2-25.94 74.1l.07 2 2 .07c1.9.07 46.74 1.4 74.1-25.95C5.49 48.84 4.15 4 4.08 2.1L4 .1 2 .03C1.8.03 1.1 0 0 0" transform="translate(2436.7 849.14)"/>
    
    <path style="fill:#2D635E;fill-opacity:1;fill-rule:nonzero;stroke:none" d="m0 0-5.46.56 16.47 158.9 5.46-.57zm14.02 161.9c-32.84 3.4-63.37-30.7-68.06-76-2.84-27.36 4.38-52.64 17.78-69.14C-27.48 5.94-16.02-1.1-3.01-2.44c32.83-3.41 63.37 30.68 68.06 76 4.7 45.3-18.2 84.94-51.03 88.34" transform="translate(2437.4 959.97)"/>
    <path style="fill:#2D635E;fill-opacity:1;fill-rule:nonzero;stroke:none" d="m0 0-2 .07-.07 2c-.07 1.9-1.42 46.74 25.95 74.1 27.36 27.36 72.2 26.02 74.09 25.95l2-.08.07-2c.07-1.9 1.41-46.73-25.95-74.1C49.65 1.52 11.27-.02 2-.02.9-.03.2-.01 0 0" transform="translate(2447.12 849.17)"/>
    <path style="fill:none;stroke:#fff;stroke-width:1;stroke-linecap:butt;stroke-linejoin:miter;stroke-miterlimit:10;stroke-dasharray:none;stroke-opacity:1" d="m0 0-2 .07-.07 2c-.07 1.9-1.42 46.74 25.95 74.1 27.36 27.36 72.2 26.02 74.09 25.95l2-.08.07-2c.07-1.9 1.41-46.73-25.95-74.1C49.65 1.52 11.27-.02 2-.02.9-.03.2-.01 0 0Z" transform="translate(2447.12 849.17)"/>
    <path style="fill:#231f20;fill-opacity:1;fill-rule:nonzero;stroke:none" d="M0 0c-9.27 0-47.65 1.54-72.1 25.98-27.35 27.36-26.01 72.2-25.94 74.1l.07 2 2 .07c1.9.07 46.74 1.4 74.1-25.95C5.49 48.84 4.15 4 4.08 2.1L4 .1 2 .03C1.8.03 1.1 0 0 0" transform="translate(2436.7 758.38)"/>
    <path style="fill:none;stroke:#fff;stroke-width:1;stroke-linecap:butt;stroke-linejoin:miter;stroke-miterlimit:10;stroke-dasharray:none;stroke-opacity:1" d="M0 0c-9.27 0-47.65 1.54-72.1 25.98-27.35 27.36-26.01 72.2-25.94 74.1l.07 2 2 .07c1.9.07 46.74 1.4 74.1-25.95C5.49 48.84 4.15 4 4.08 2.1L4 .1 2 .03C1.8.03 1.1 0 0 0Z" transform="translate(2436.7 758.38)"/>
    <path style="fill:#2D635E;fill-opacity:1;fill-rule:nonzero;stroke:none" d="m0 0-2 .07-.07 2c-.07 1.9-1.42 46.74 25.95 74.1 27.36 27.36 72.2 26.02 74.09 25.95l2-.08.07-2c.07-1.9 1.41-46.73-25.95-74.1C49.65 1.52 11.27-.02 2-.02.9-.03.2-.01 0 0" transform="translate(2447.12 758.4)"/>
    <path style="fill:none;stroke:#fff;stroke-width:1;stroke-linecap:butt;stroke-linejoin:miter;stroke-miterlimit:10;stroke-dasharray:none;stroke-opacity:1" d="m0 0-2 .07-.07 2c-.07 1.9-1.42 46.74 25.95 74.1 27.36 27.36 72.2 26.02 74.09 25.95l2-.08.07-2c.07-1.9 1.41-46.73-25.95-74.1C49.65 1.52 11.27-.02 2-.02.9-.03.2-.01 0 0Z" transform="translate(2447.12 758.4)"/>
    <path style="fill:#2D635E;fill-opacity:1;fill-rule:nonzero;stroke:none" d="M2449.04 534.91h-12.25v326.72h12.25z"/>
  </g>
</svg>
